/* XPM */
static char *exit[] = {
/* columns rows colors chars-per-pixel */
"64 64 8 1 ",
"  c None",
". c #5CD00B",
"X c #6ABE30",
"o c black",
"O c #58413D",
"+ c black",
"@ c black",
"# c black",
/* pixels */
"................................................................",
".XXXXXXXXXXXXXXXXXXXXXXXXXXXXXXXXXXXXXXXXXXXXXXXXXXXXXXXXXXXXXX.",
".XXXXXXXXXXXXXXXXXXXXXXXXXXXXXXXXXXXXXXXXXXXXXXXXXXXXXXXXXXXXXX.",
".XXXXXXXXXXXXXXXXXXXXXXXXXXXXXXXXXXXXXXXXXXXXXXXXXXXXXXXXXXXXXX.",
".XXXXXXXXXXXXXXXXXXXXXXXXXXXXXXXXXXXXXXXXXXXXXXXXXXXXXXXXXXXXXX.",
".XXXXXXXXXXXXXXXXXXXXXXXXXXXXXXXXXXXXXXXXXXXXXXXXXXXXXXXXXXXXXX.",
".XXXXXXXXXXXXXXXXXXXXXXXXXXXXXXXXXXXXXXXXXXXXXXXXXXXXXXXXXXXXXX.",
".XXXXXXXXXXXXXXXXXXXXXXXXXXXXXXXXXXXXXXXXXXXXXXXXXXXXXXXXXXXXXX.",
".XXXXXXXXXXXXXXXXXXXXXXXXXXXXXXXXXXXXXXXXXXXXXXXXXXXXXXXXXXXXXX.",
".XXXXXXXXXXXXXXXXXXXXXXXXXXXXXXXXXXXXXXXXXXXXXXXXXXXXXXXXXXXXXX.",
".XXXXXXXXXXXXXXXXXXXXXXXXXXooooooooooXXXXXXXXXXXXXXXXXXXXXXXXXX.",
".XXXXXXXXXXXXXXXXXXXXXXXooooooooooooooooXXXXXXXXXXXXXXXXXXXXXXX.",
".XXXXXXXXXXXXXXXXXXXXXoooooOOOOOOOOOOoooooXXXXXXXXXXXXXXXXXXXXX.",
".XXXXXXXXXXXXXXXXXXXooooOOOOOOOOOOOOOOOOooooXXXXXXXXXXXXXXXXXXX.",
".XXXXXXXXXXXXXXXXXXoooOOOOOOOOOOOOOOOOOOOOoooXXXXXXXXXXXXXXXXXX.",
".XXXXXXXXXXXXXXXXooooOOOOOOOOOOOOOOOOOOOOOOooooXXXXXXXXXXXXXXXX.",
".XXXXXXXXXXXXXXXoooOOOOOOOOOOOOOOOOOOOOOOOOOOoooXXXXXXXXXXXXXXX.",
".XXXXXXXXXXXXXXoooOOOOOOOOOOOOOOOOOOOOOOOOOOOOoooXXXXXXXXXXXXXX.",
".XXXXXXXXXXXXXXooOOOOOOOOOOOOOOOOOOOOOOOOOOOOOOooXXXXXXXXXXXXXX.",
".XXXXXXXXXXXXXooOOOOOOOOOOOOOOOOOOOOOOOOOOOOOOOOooXXXXXXXXXXXXX.",
".XXXXXXXXXXXXoooOOOOOOOOOOOOOOOOOOOOOOOOOOOOOOOOoooXXXXXXXXXXXX.",
".XXXXXXXXXXXXooOOOOOOOOOOOOOOOOOOOOOOOOOOOOOOOOOOooXXXXXXXXXXXX.",
".XXXXXXXXXXXooOOOOOOOOOOOOOOOOOOOOOOOOOOOOOOOOOOOOooXXXXXXXXXXX.",
".XXXXXXXXXXXooOOOOOOOOOOOOOOOOOOOOOOOOOOOOOOOOOOOOooXXXXXXXXXXX.",
".XXXXXXXXXXooOOOOOOOOOOOOOOOOOOOOOOOOOOOOOOOOOOOOOOooXXXXXXXXXX.",
".XXXXXXXXXXooOOOOOOOOOOOOOOOOOOOOOOOOOOOOOOOOOOOOOOooXXXXXXXXXX.",
".XXXXXXXXXXooOOOOOOOOOOOOOOOOOOOOOOOOOOOOOOOOOOOOOOooXXXXXXXXXX.",
".XXXXXXXXXooOOOOOOOOOOOOOOOOOOOOOOOOOOOOOOOOOOOOOOOOooXXXXXXXXX.",
".XXXXXXXXXooOOOOOOOOOOOOOOOOOOOOOOOOOOOOOOOOOOOOOOOOooXXXXXXXXX.",
".XXXXXXXXXooOOOOOOOOOOOOOOOOOOOOOOOOOOOOOOOOOOOOOOOOooXXXXXXXXX.",
".XXXXXXXXXooOOOOOOOOOOOOOOOOOOOOOOOOOOOOOOOOOOOOOOOOooXXXXXXXXX.",
".XXXXXXXXXooOOOOOOOOOOOOOOOOOOOOOOOOOOOOOOOOOOOOOOOOooXXXXXXXXX.",
".XXXXXXXXXooOOOOOOOOOOOOOOOOOOOOOOOOOOOOOOOOOOOOOOOOooXXXXXXXXX.",
".XXXXXXXXXooOOOOOOOOOOOOOOOOOOOOOOOOOOOOOOOOOOOOOOOOooXXXXXXXXX.",
".XXXXXXXXXooOOOOOOOOOOOOOOOOOOOOOOOOOOOOOOOOOOOOOOOOooXXXXXXXXX.",
".XXXXXXXXXooOOOOOOOOOOOOOOOOOOOOOOOOOOOOOOOOOOOOOOOOooXXXXXXXXX.",
".XXXXXXXXXooOOOOOOOOOOOOOOOOOOOOOOOOOOOOOOOOOOOOOOOOooXXXXXXXXX.",
".XXXXXXXXXXooOOOOOOOOOOOOOOOOOOOOOOOOOOOOOOOOOOOOOOooXXXXXXXXXX.",
".XXXXXXXXXXooOOOOOOOOOOOOOOOOOOOOOOOOOOOOOOOOOOOOOOooXXXXXXXXXX.",
".XXXXXXXXXXooOOOOOOOOOOOOOOOOOOOOOOOOOOOOOOOOOOOOOOooXXXXXXXXXX.",
".XXXXXXXXXXXooOOOOOOOOOOOOOOOOOOOOOOOOOOOOOOOOOOOOooXXXXXXXXXXX.",
".XXXXXXXXXXXooOOOOOOOOOOOOOOOOOOOOOOOOOOOOOOOOOOOOooXXXXXXXXXXX.",
".XXXXXXXXXXXXooOOOOOOOOOOOOOOOOOOOOOOOOOOOOOOOOOOooXXXXXXXXXXXX.",
".XXXXXXXXXXXXoooOOOOOOOOOOOOOOOOOOOOOOOOOOOOOOOOoooXXXXXXXXXXXX.",
".XXXXXXXXXXXXXooOOOOOOOOOOOOOOOOOOOOOOOOOOOOOOOOooXXXXXXXXXXXXX.",
".XXXXXXXXXXXXXXooOOOOOOOOOOOOOOOOOOOOOOOOOOOOOOooXXXXXXXXXXXXXX.",
".XXXXXXXXXXXXXXoooOOOOOOOOOOOOOOOOOOOOOOOOOOOOoooXXXXXXXXXXXXXX.",
".XXXXXXXXXXXXXXXoooOOOOOOOOOOOOOOOOOOOOOOOOOOoooXXXXXXXXXXXXXXX.",
".XXXXXXXXXXXXXXXXooooOOOOOOOOOOOOOOOOOOOOOOooooXXXXXXXXXXXXXXXX.",
".XXXXXXXXXXXXXXXXXXoooOOOOOOOOOOOOOOOOOOOOoooXXXXXXXXXXXXXXXXXX.",
".XXXXXXXXXXXXXXXXXXXooooOOOOOOOOOOOOOOOOooooXXXXXXXXXXXXXXXXXXX.",
".XXXXXXXXXXXXXXXXXXXXXoooooOOOOOOOOOOoooooXXXXXXXXXXXXXXXXXXXXX.",
".XXXXXXXXXXXXXXXXXXXXXXXooooooooooooooooXXXXXXXXXXXXXXXXXXXXXXX.",
".XXXXXXXXXXXXXXXXXXXXXXXXXXooooooooooXXXXXXXXXXXXXXXXXXXXXXXXXX.",
".XXXXXXXXXXXXXXXXXXXXXXXXXXXXXXXXXXXXXXXXXXXXXXXXXXXXXXXXXXXXXX.",
".XXXXXXXXXXXXXXXXXXXXXXXXXXXXXXXXXXXXXXXXXXXXXXXXXXXXXXXXXXXXXX.",
".XXXXXXXXXXXXXXXXXXXXXXXXXXXXXXXXXXXXXXXXXXXXXXXXXXXXXXXXXXXXXX.",
".XXXXXXXXXXXXXXXXXXXXXXXXXXXXXXXXXXXXXXXXXXXXXXXXXXXXXXXXXXXXXX.",
".XXXXXXXXXXXXXXXXXXXXXXXXXXXXXXXXXXXXXXXXXXXXXXXXXXXXXXXXXXXXXX.",
".XXXXXXXXXXXXXXXXXXXXXXXXXXXXXXXXXXXXXXXXXXXXXXXXXXXXXXXXXXXXXX.",
".XXXXXXXXXXXXXXXXXXXXXXXXXXXXXXXXXXXXXXXXXXXXXXXXXXXXXXXXXXXXXX.",
".XXXXXXXXXXXXXXXXXXXXXXXXXXXXXXXXXXXXXXXXXXXXXXXXXXXXXXXXXXXXXX.",
".XXXXXXXXXXXXXXXXXXXXXXXXXXXXXXXXXXXXXXXXXXXXXXXXXXXXXXXXXXXXXX.",
"................................................................"
};
