/* XPM */
static char *rabbit[] = {
/* columns rows colors chars-per-pixel */
"64 64 8 1 ",
"  c None",
". c black",
"X c white",
"o c #D77BBA",
"O c #E1E1E1",
"+ c black",
"@ c black",
"# c black",
/* pixels */
"                                                                ",
"                                                                ",
"                                                                ",
"                                                                ",
"                                                                ",
"                                                                ",
"                                                                ",
"                                                                ",
"                                                                ",
"                                                                ",
"                                                                ",
"                                                                ",
"                                                                ",
"                                                                ",
"                                                                ",
"                                                                ",
"            .       ..                                          ",
"           .X.     .XX.                                         ",
"           .XX.   .oXX.                                         ",
"          .oXX.  .ooXX.                                         ",
"          .oXX.  .oXX.                                          ",
"          .oXX.  .oXX.                                          ",
"          .oXX.  .oX.                                           ",
"          .oXX.  .oX.                                           ",
"          .oX.  .oX.                                            ",
"          .oX.  .oX.                                            ",
"          .o.  .oX.                                             ",
"         .oX. ..XX..                                            ",
"         .X...XXXXXX..                                          ",
"         ...XXXXXXXXXX.  ..............                         ",
"        ..XXXXXXXXXXXXX..XXXXXXXXXXXXXX..                       ",
"      ..XXXXXXXXXXXXXXX.XXXXXXXXXXXXXXXXX..                     ",
"     .XXXXXXXXXXXXXXXXX.XXXXXXXXXXXXXXXXXXX..                   ",
"    .XXXXXXXXXXXXXXXXX.XXXXXXXXXXXXXXXXXXXXXX..                 ",
"    .XXX..XXXXXXXXXXXX.XXXXXXXXXXXXXXXXXXXXXXXX.                ",
"   .XXXX..XXXXXXXXXXX.XXXXXXXXXXXXXXXXXXXXXXXXXX.               ",
"   .XXXX..XXXXXXXXXXX.XXXXXXXXXXXXXXXXXXXXXXXXXXX.              ",
"  .ooXXXXXXXXXXXXXXX.XXXXXXXXXXXXXXXXXXXXXXXXXXXXX.             ",
"  .ooXXXXXXXXXXXXXXX.XXXXXXXXXXXXXXXXXXXXXXXXXXXXXX.            ",
"   .XXXXXXXXXXXXXXX.XXXXXXXXXXXXXXXXXXXXXXXXXXXXXXXX.           ",
"   .XXXXXXXXXXXXXXX.XXXXXXXXXXXXXXXXXOOOOOXXXXXXXXXXX.          ",
"   .OXXXXXXXXXXXXX.XXXXXXXXXXXXXXXXXO.....OXXXXXXXXXXX.         ",
"    .OOXXXXXXXXXXX.XXXXXXXXXXXXXXXXO.XXXXX.OXXXXXXXXXX...       ",
"     ..OOXXXXXXXX.XXXXXXXXXXXXXXXXO.XXXXXXX.OXXXXXXXX..XX.      ",
"       ..OOOXXXXX.XXXXXXXXXXXXXXXX.XXXXXXXXX.XXXXXXXX.XXXX.     ",
"         ...OOOO.XXXXXXXXXXXXXXXXX.XXXXXXXXXXXXXXXXXX.XXXX.     ",
"            .....XXXXXXXXXXXXXXXXX.XXXXXXXXXXXXXXXXXX.XXXX.     ",
"               .OXXXXXXXXXXXXXXXXX.XXXXXXXXXXXXXXXXXX.XXXX.     ",
"                .OXXXXXXXXXXXXXXXX.XXXXXXXXXXXXXXXXXX.XXXO.     ",
"                 .OXXXXXXXXXXXXXXX.OXXXXXXXXXXXXXXXXX..OO.      ",
"                  .OXXXXXXXXXXXXXXX.OXXXXXXXXXXXXXXXXO...       ",
"                   .OXXXXXXXXXXXXXX.OXXXXXXXXXXXXXXXXO.         ",
"                    .OXXXXXXXXXXXXXX.OXXXXXXXXXXXXXXO.          ",
"                     .OXXXXXXXXXXXXXX.OXXXXXXXXXXXXXO.          ",
"                     .OXXXXOXXXXXXXXXX.OXXXXXXXXXXXO.           ",
"                      .XXXX.OXXXXXXXXX.OXXXXXXXXXXO.            ",
"                      .XXXX.OOOOOOOOOOX.OXXXXXXXXO.             ",
"                      .XXXX..........OOO.OXXXXXXXO.             ",
"                   ....XXXX.        ......OXXXXXO.              ",
"                  .XXXXXXXX.       .XXXXX..XXXXXO.              ",
"                  .XXXXXXXX.       .XXXXXXXXXXXO.               ",
"                  .XXXXXXXX.       .XXXXXXXXXXXO.               ",
"                  .OOOOOOOO.       .OOOOOOOOOOO.                ",
"                   .........        ............                "
};
