/* XPM */
static char * egg_xpm[] = {
"64 64 5 1",
" 	c #9CBDEE",
".	c #318B6A",
"+	c #000000",
"@	c #FFB531",
"#	c #DE0000",
"                                                                ",
"                                                                ",
"                                                                ",
"                                                                ",
"        ....                                                    ",
"        ....                                                    ",
"        ....                                                    ",
"        ....                                                    ",
"        ........        ....++++++++                            ",
"        ........        ....++++++++                            ",
"        ........        ....++++++++                            ",
"        ........        ....++++++++                            ",
"            ....    ....++++@@@@@@@@++++                        ",
"            ....    ....++++@@@@@@@@++++                        ",
"            ....    ....++++@@@@@@@@++++                        ",
"            ....    ....++++@@@@@@@@++++                        ",
"........            ++++################++++                    ",
"........            ++++################++++                    ",
"........            ++++################++++                    ",
"........            ++++################++++                    ",
"    ........    ++++########################++++                ",
"    ........    ++++########################++++                ",
"    ........    ++++########################++++                ",
"    ........    ++++########################++++                ",
"                ++++########################++++                ",
"                ++++########################++++                ",
"                ++++########################++++                ",
"                ++++########################++++                ",
"            ++++################################++++            ",
"            ++++################################++++            ",
"            ++++################################++++            ",
"            ++++################################++++            ",
"            ++++################################++++            ",
"            ++++################################++++            ",
"            ++++################################++++            ",
"            ++++################################++++            ",
"            ++++################################++++            ",
"            ++++################################++++            ",
"            ++++################################++++            ",
"            ++++################################++++            ",
"            ++++@@@@########################@@@@++++    ....    ",
"            ++++@@@@########################@@@@++++    ....    ",
"            ++++@@@@########################@@@@++++    ....    ",
"            ++++@@@@########################@@@@++++    ....    ",
"                ++++@@@@@@@@########@@@@@@@@++++    ........    ",
"                ++++@@@@@@@@########@@@@@@@@++++    ........    ",
"                ++++@@@@@@@@########@@@@@@@@++++    ........    ",
"                ++++@@@@@@@@########@@@@@@@@++++    ........    ",
"                    ++++@@@@@@@@@@@@@@@@++++        ....        ",
"                    ++++@@@@@@@@@@@@@@@@++++        ....        ",
"                    ++++@@@@@@@@@@@@@@@@++++        ....        ",
"                    ++++@@@@@@@@@@@@@@@@++++        ....        ",
"                        ++++++++++++++++....                    ",
"                        ++++++++++++++++....                    ",
"                        ++++++++++++++++....                    ",
"                        ++++++++++++++++....                    ",
"                                                                ",
"                                                                ",
"                                                                ",
"                                                                ",
"                                                                ",
"                                                                ",
"                                                                ",
"                                                                "};
