/* XPM */
static char * egg_1_xpm[] = {
"64 64 4 1",
" 	c #9CBDEE",
".	c #000000",
"+	c #DE0000",
"@	c #FFB531",
"                                                                ",
"                                                                ",
"                                                                ",
"                                                                ",
"                                                                ",
"                                                                ",
"                                                                ",
"                                                                ",
"                            ........                            ",
"                            ........                            ",
"                            ........                            ",
"                            ........                            ",
"                        ....++++++++....                        ",
"                        ....++++++++....                        ",
"                        ....++++++++....                        ",
"                        ....++++++++....                        ",
"                    ....++++++++++++++++....                    ",
"                    ....++++++++++++++++....                    ",
"                    ....++++++++++++++++....                    ",
"                    ....++++++++++++++++....                    ",
"                ....++++++++++++++++++++++++....                ",
"                ....++++++++++++++++++++++++....                ",
"                ....++++++++++++++++++++++++....                ",
"                ....++++++++++++++++++++++++....                ",
"                ....++++++++++++++++++++++++....                ",
"                ....++++++++++++++++++++++++....                ",
"                ....++++++++++++++++++++++++....                ",
"                ....++++++++++++++++++++++++....                ",
"            ....++++++++++++++++++++++++++++++++....            ",
"            ....++++++++++++++++++++++++++++++++....            ",
"            ....++++++++++++++++++++++++++++++++....            ",
"            ....++++++++++++++++++++++++++++++++....            ",
"            ....@@@@++++++++++++++++++++++++@@@@....            ",
"            ....@@@@++++++++++++++++++++++++@@@@....            ",
"            ....@@@@++++++++++++++++++++++++@@@@....            ",
"            ....@@@@++++++++++++++++++++++++@@@@....            ",
"            ....@@@@@@@@@@@@++++++++@@@@@@@@@@@@....            ",
"            ....@@@@@@@@@@@@++++++++@@@@@@@@@@@@....            ",
"            ....@@@@@@@@@@@@++++++++@@@@@@@@@@@@....            ",
"            ....@@@@@@@@@@@@++++++++@@@@@@@@@@@@....            ",
"            ....++++@@@@@@@@@@@@@@@@@@@@@@@@++++....            ",
"            ....++++@@@@@@@@@@@@@@@@@@@@@@@@++++....            ",
"            ....++++@@@@@@@@@@@@@@@@@@@@@@@@++++....            ",
"            ....++++@@@@@@@@@@@@@@@@@@@@@@@@++++....            ",
"                ....++++++++@@@@@@@@++++++++....                ",
"                ....++++++++@@@@@@@@++++++++....                ",
"                ....++++++++@@@@@@@@++++++++....                ",
"                ....++++++++@@@@@@@@++++++++....                ",
"                    ....++++++++++++++++....                    ",
"                    ....++++++++++++++++....                    ",
"                    ....++++++++++++++++....                    ",
"                    ....++++++++++++++++....                    ",
"                        ................                        ",
"                        ................                        ",
"                        ................                        ",
"                        ................                        ",
"                                                                ",
"                                                                ",
"                                                                ",
"                                                                ",
"                                                                ",
"                                                                ",
"                                                                ",
"                                                                "};
