/* XPM */
static char * exit_xpm[] = {
"64 64 77 1",
" 	c #00FF00",
".	c #004080",
"+	c #415AFF",
"@	c #FFFFFF",
"#	c #29319C",
"$	c #20B44A",
"%	c #FFFF8B",
"&	c #62BD20",
"*	c #6A00EE",
"=	c #A4FFFF",
"-	c #003162",
";	c #9CBDEE",
">	c #316A29",
",	c #FF9C00",
"'	c #FF0029",
")	c #1831FF",
"!	c #949439",
"~	c #733120",
"{	c #FFFFAC",
"]	c #105A4A",
"^	c #318B6A",
"/	c #185A31",
"(	c #000000",
"_	c #CD7320",
":	c #391852",
"<	c #9C7BA4",
"[	c #520020",
"}	c #CD0029",
"|	c #293918",
"1	c #FF7B08",
"2	c #FFBD8B",
"3	c #E68B31",
"4	c #DE9441",
"5	c #6A6210",
"6	c #4A2918",
"7	c #084A29",
"8	c #7B7B10",
"9	c #313908",
"0	c #314A10",
"a	c #7B6A10",
"b	c #201020",
"c	c #73CD20",
"d	c #CD18FF",
"e	c #AC18FF",
"f	c #620020",
"g	c #BD6210",
"h	c #5A2010",
"i	c #4A1800",
"j	c #AC836A",
"k	c #FF4100",
"l	c #7B5210",
"m	c #B47362",
"n	c #296220",
"o	c #CDC539",
"p	c #D56200",
"q	c #F67B00",
"r	c #EEE639",
"s	c #DE8331",
"t	c #103183",
"u	c #201029",
"v	c #299C6A",
"w	c #E6FF9C",
"x	c #62416A",
"y	c #BD94CD",
"z	c #B44A00",
"A	c #B4A431",
"B	c #626AA4",
"C	c #311841",
"D	c #628339",
"E	c #204100",
"F	c #DEA44A",
"G	c #BD0029",
"H	c #410020",
"I	c #00005A",
"J	c #39007B",
"K	c #FF00A4",
"L	c #7B0041",
";;;;gggg;;;;;;;;hhhhgggg;;;;hhhhhhhh;;;;gggghhhh;;;;;;;;gggg;;;;",
";;;;gggg;;;;;;;;hhhhgggg;;;;hhhhhhhh;;;;gggghhhh;;;;;;;;gggg;;;;",
";;;;gggg;;;;;;;;hhhhgggg;;;;hhhhhhhh;;;;gggghhhh;;;;;;;;gggg;;;;",
";;;;gggg;;;;;;;;hhhhgggg;;;;hhhhhhhh;;;;gggghhhh;;;;;;;;gggg;;;;",
"gggg((((hhhhgggg((((hhhhgggg((((((((gggghhhh((((gggghhhh((((gggg",
"gggg((((hhhhgggg((((hhhhgggg((((((((gggghhhh((((gggghhhh((((gggg",
"gggg((((hhhhgggg((((hhhhgggg((((((((gggghhhh((((gggghhhh((((gggg",
"gggg((((hhhhgggg((((hhhhgggg((((((((gggghhhh((((gggghhhh((((gggg",
";;;;hhhh((((hhhh((((((((hhhh((((((((hhhh((((((((hhhh((((hhhh;;;;",
";;;;hhhh((((hhhh((((((((hhhh((((((((hhhh((((((((hhhh((((hhhh;;;;",
";;;;hhhh((((hhhh((((((((hhhh((((((((hhhh((((((((hhhh((((hhhh;;;;",
";;;;hhhh((((hhhh((((((((hhhh((((((((hhhh((((((((hhhh((((hhhh;;;;",
"gggggggg((((((((((((((((((((((((((((((((((((((((((((((((gggggggg",
"gggggggg((((((ggggggggggggggggggggggggggggggggggggg(((((gggggggg",
"gggggggg((((((ggggggggggggggggggggggggggggggggggggg(((((gggggggg",
"gggggggg((((((ggggggggggggggggggggggggggggggggggggg(((((gggggggg",
"hhhhhhhh((((((ggggggggggggggggggggggggggggggggggggg(((((gggghhhh",
"hhhhhhhh((((((ggggggggggggggggggggggggggggggggggggg(((((gggghhhh",
"hhhhhhhh((((((ggggggggggggggggggggggggggggggggggggg(((((gggghhhh",
"hhhhhhhh((((((ggggggggggggggggggggggggggggggggggggg(((((gggghhhh",
"((((((((((((((ggggggggggggggggggggggggggggggggggggg(((((((((((((",
"((((((((((((((ggggggggggggggggggggggggggggggggggggg(((((((((((((",
"((((((((((((((ggggggggggggggggggggggggggggggggggggg(((((((((((((",
"((((((((((((((ggggggggggggggggggggggggggggggggggggg(((((((((((((",
"gggg((((((((((ggggggggggggggggggggggggggggggggggggg(((((((((gggg",
"gggg((((((((((ggggggggggggggggggggggggggggggggggggg(((((((((gggg",
"gggg((((((((((ggggggggggggggggggggggggggggggggggggg(((((((((gggg",
"gggg((((((((((ggggggggggggggggggggggggggggggggggggg(((((((((gggg",
";;;;hhhh((((((ggggggggggggggggggggggggggggggggggggg(((((hhhh;;;;",
";;;;hhhh((((((ggggggggggggggggggggggggggggggggggggg(((((hhhh;;;;",
";;;;hhhh((((((ggggggggggggggggggggggggggggggggggggg(((((hhhh;;;;",
";;;;hhhh((((((ggggggggggggggggggggggggggggggggggggg(((((hhhh;;;;",
"gggg((((((((((ggggggggggggggggggggggggggggggggggggg(((((hhhh;;;;",
"gggg((((((((((ggggggggggggggggggggggggggggggggggggg(((((hhhh;;;;",
"gggg((((((((((ggggggggggggggggggggggggggggggggggggg(((((hhhh;;;;",
"gggg((((((((((ggggggggggggggggggggggggggggggggggggg(((((hhhh;;;;",
"hhhh((((((((((ggggggggggggggggggggggggggggggggggggg(((((((((hhhh",
"hhhh((((((((((ggggggggggggggggggggggggggggggggggggg(((((((((hhhh",
"hhhh((((((((((ggggggggggggggggggggggggggggggggggggg(((((((((hhhh",
"hhhh((((((((((ggggggggggggggggggggggggggggggggggggg(((((((((hhhh",
";;;;hhhh((((((ggggggggggggggggggggggggggggggggggggg(((((hhhh;;;;",
";;;;hhhh((((((ggggggggggggggggggggggggggggggggggggg(((((hhhh;;;;",
";;;;hhhh((((((ggggggggggggggggggggggggggggggggggggg(((((hhhh;;;;",
";;;;hhhh((((((ggggggggggggggggggggggggggggggggggggg(((((hhhh;;;;",
";;;;;;;;((((((ggggggggggggggggggggggggggggggggggggg(((((gggggggg",
";;;;;;;;((((((ggggggggggggggggggggggggggggggggggggg(((((gggggggg",
";;;;;;;;((((((ggggggggggggggggggggggggggggggggggggg(((((gggggggg",
";;;;;;;;((((((ggggggggggggggggggggggggggggggggggggg(((((gggggggg",
"hhhhhhhh((((((ggggggggggggggggggggggggggggggggggggg(((((hhhhhhhh",
"hhhhhhhh((((((ggggggggggggggggggggggggggggggggggggg(((((hhhhhhhh",
"hhhhhhhh((((((ggggggggggggggggggggggggggggggggggggg(((((hhhhhhhh",
"hhhhhhhh((((((ggggggggggggggggggggggggggggggggggggg(((((hhhhhhhh",
";;;;;;;;hhhh((((((((((((((((((((((((((((((((((((((((((((hhhh;;;;",
";;;;;;;;hhhh((((((((((((((((((((((((((((((((((((((((((((hhhh;;;;",
";;;;;;;;hhhh((((((((((((((((((((((((((((((((((((((((((((hhhh;;;;",
";;;;;;;;hhhh((((((((((((((((((((((((((((((((((((((((((((hhhh;;;;",
";;;;;;;;;;;;hhhh((((hhhh((((((((hhhh((((((((hhhh((((hhhh;;;;;;;;",
";;;;;;;;;;;;hhhh((((hhhh((((((((hhhh((((((((hhhh((((hhhh;;;;;;;;",
";;;;;;;;;;;;hhhh((((hhhh((((((((hhhh((((((((hhhh((((hhhh;;;;;;;;",
";;;;;;;;;;;;hhhh((((hhhh((((((((hhhh((((((((hhhh((((hhhh;;;;;;;;",
";;;;;;;;hhhhhhhh;;;;;;;;hhhhhhhh;;;;;;;;hhhh;;;;;;;;hhhhhhhh;;;;",
";;;;;;;;hhhhhhhh;;;;;;;;hhhhhhhh;;;;;;;;hhhh;;;;;;;;hhhhhhhh;;;;",
";;;;;;;;hhhhhhhh;;;;;;;;hhhhhhhh;;;;;;;;hhhh;;;;;;;;hhhhhhhh;;;;",
";;;;;;;;hhhhhhhh;;;;;;;;hhhhhhhh;;;;;;;;hhhh;;;;;;;;hhhhhhhh;;;;"};
