/* XPM */
static char * exit_closed_xpm[] = {
"64 64 5 1",
" 	c #9CBDEE",
".	c #318B6A",
"+	c #BD6210",
"@	c #5A2010",
"#	c #000000",
"                                                                ",
"                                                                ",
"                                                                ",
"                                                                ",
"        ....                                                    ",
"        ....                                                    ",
"        ....                                                    ",
"        ....                                                    ",
"        ........        ....                                    ",
"        ........        ....                                    ",
"        ........        ....                                    ",
"        ........        ....                                    ",
"            ....    ........                                    ",
"            ....    ........                                    ",
"            ....    ........                                    ",
"            ....    ........                                    ",
"........            ++++@@@@        @@@@                        ",
"........            ++++@@@@        @@@@                        ",
"........            ++++@@@@        @@@@                        ",
"........            ++++@@@@        @@@@                        ",
"    ........        @@@@++++++++@@@@++++++++                    ",
"    ........        @@@@++++++++@@@@++++++++                    ",
"    ........        @@@@++++++++@@@@++++++++                    ",
"    ........        @@@@++++++++@@@@++++++++                    ",
"                ++++    ++++########@@@@    @@@@                ",
"                ++++    ++++########@@@@    @@@@                ",
"                ++++    ++++########@@@@    @@@@                ",
"                ++++    ++++########@@@@    @@@@                ",
"                @@@@++++################++++                    ",
"                @@@@++++################++++                    ",
"                @@@@++++################++++                    ",
"                @@@@++++################++++                    ",
"                    ++++################@@@@@@@@                ",
"                    ++++################@@@@@@@@                ",
"                    ++++################@@@@@@@@                ",
"                    ++++################@@@@@@@@                ",
"                @@@@@@@@++++########@@@@++++                    ",
"                @@@@@@@@++++########@@@@++++                    ",
"                @@@@@@@@++++########@@@@++++                    ",
"                @@@@@@@@++++########@@@@++++                    ",
"                            @@@@++++@@@@@@@@....        ....    ",
"                            @@@@++++@@@@@@@@....        ....    ",
"                            @@@@++++@@@@@@@@....        ....    ",
"                            @@@@++++@@@@@@@@....        ....    ",
"                        @@@@++++@@@@        ....    ........    ",
"                        @@@@++++@@@@        ....    ........    ",
"                        @@@@++++@@@@        ....    ........    ",
"                        @@@@++++@@@@        ....    ........    ",
"                                ........            ....        ",
"                                ........            ....        ",
"                                ........            ....        ",
"                                ........            ....        ",
"                                    ........                    ",
"                                    ........                    ",
"                                    ........                    ",
"                                    ........                    ",
"                                                                ",
"                                                                ",
"                                                                ",
"                                                                ",
"                                                                ",
"                                                                ",
"                                                                ",
"                                                                "};
