/* XPM */
static char * floor_xpm[] = {
"64 64 2 1",
" 	c #9CBDEE",
".	c #318B6A",
"                                                                ",
"                                                                ",
"                                                                ",
"                                                                ",
"        ....                                                    ",
"        ....                                                    ",
"        ....                                                    ",
"        ....                                                    ",
"        ........        ....                                    ",
"        ........        ....                                    ",
"        ........        ....                                    ",
"        ........        ....                                    ",
"            ....    ........                                    ",
"            ....    ........                                    ",
"            ....    ........                                    ",
"            ....    ........                                    ",
"........            ....                                        ",
"........            ....                                        ",
"........            ....                                        ",
"........            ....                                        ",
"    ........                                                    ",
"    ........                                                    ",
"    ........                                                    ",
"    ........                                                    ",
"                                                                ",
"                                                                ",
"                                                                ",
"                                                                ",
"                                                                ",
"                                                                ",
"                                                                ",
"                                                                ",
"                                                                ",
"                                                                ",
"                                                                ",
"                                                                ",
"                                        ....                    ",
"                                        ....                    ",
"                                        ....                    ",
"                                        ....                    ",
"                                        ........        ....    ",
"                                        ........        ....    ",
"                                        ........        ....    ",
"                                        ........        ....    ",
"                                            ....    ........    ",
"                                            ....    ........    ",
"                                            ....    ........    ",
"                                            ....    ........    ",
"                                ........            ....        ",
"                                ........            ....        ",
"                                ........            ....        ",
"                                ........            ....        ",
"                                    ........                    ",
"                                    ........                    ",
"                                    ........                    ",
"                                    ........                    ",
"                                                                ",
"                                                                ",
"                                                                ",
"                                                                ",
"                                                                ",
"                                                                ",
"                                                                ",
"                                                                "};
