/* XPM */
static char * num_6_xpm[] = {
"16 16 2 1",
" 	c #000000",
".	c #FFFFFF",
"                ",
"                ",
"    ........    ",
"    ........    ",
"  ....          ",
"  ....          ",
"  ..........    ",
"  ..........    ",
"  ....    ....  ",
"  ....    ....  ",
"  ....    ....  ",
"  ....    ....  ",
"    ........    ",
"    ........    ",
"                ",
"                "};
