/* XPM */
static char * num_5_xpm[] = {
"16 16 2 1",
" 	c #000000",
".	c #FFFFFF",
"                ",
"                ",
"  ..........    ",
"  ..........    ",
"  ....          ",
"  ....          ",
"  ..........    ",
"  ..........    ",
"          ....  ",
"          ....  ",
"          ....  ",
"          ....  ",
"  ..........    ",
"  ..........    ",
"                ",
"                "};
