/* XPM */
static char * num_4_xpm[] = {
"16 16 2 1",
" 	c #000000",
".	c #FFFFFF",
"                ",
"                ",
"        ....    ",
"        ....    ",
"      ......    ",
"      ......    ",
"    ........    ",
"    ........    ",
"  ....  ....    ",
"  ....  ....    ",
"  ............  ",
"  ............  ",
"        ....    ",
"        ....    ",
"                ",
"                "};
