/* XPM */
static char * rabbit_3_xpm[] = {
"64 64 5 1",
" 	c #9CBDEE",
".	c #000000",
"+	c #318B6A",
"@	c #FFFFFF",
"#	c #E1E1E1",
"              ............            ........                  ",
"              ............            ........                  ",
"              ............            ........                  ",
"              ............            ........                  ",
"        ++....@@@@@@@@@@@@....    ....@@@@@@@@....              ",
"        ++....@@@@@@@@@@@@....    ....@@@@@@@@....              ",
"        ++....@@@@@@@@@@@@....    ....@@@@@@@@....              ",
"        ++....@@@@@@@@@@@@....    ....@@@@@@@@....              ",
"        ++........####@@@@@@@@....@@@@########....              ",
"        ++........####@@@@@@@@....@@@@########....              ",
"        ++........####@@@@@@@@....@@@@########....              ",
"        ++........####@@@@@@@@....@@@@########....              ",
"            ++++  ....####@@@@....@@@@####....                  ",
"            ++++  ....####@@@@....@@@@####....                  ",
"            ++++  ....####@@@@....@@@@####....                  ",
"            ++++  ....####@@@@....@@@@####....                  ",
"++++++++          ....####........@@@@####....                  ",
"++++++++          ....####........@@@@####....                  ",
"++++++++          ....####........@@@@####....                  ",
"++++++++          ....####........@@@@####....                  ",
"    ++++++++      ....@@@@@@@@@@@@@@@@@@@@....                  ",
"    ++++++++      ....@@@@@@@@@@@@@@@@@@@@....                  ",
"    ++++++++      ....@@@@@@@@@@@@@@@@@@@@....                  ",
"    ++++++++      ....@@@@@@@@@@@@@@@@@@@@....                  ",
"              ....@@@@....@@@@@@@@....@@@@@@@@....              ",
"              ....@@@@....@@@@@@@@....@@@@@@@@....              ",
"              ....@@@@....@@@@@@@@....@@@@@@@@....              ",
"              ....@@@@....@@@@@@@@....@@@@@@@@....              ",
"              ....@@@@....@@@@@@@@....@@@@@@@@........          ",
"              ....@@@@....@@@@@@@@....@@@@@@@@........          ",
"              ....@@@@....@@@@@@@@....@@@@@@@@........          ",
"              ....@@@@....@@@@@@@@....@@@@@@@@........          ",
"          ....####@@@@........@@@@@@@@@@@@@@@@####....          ",
"          ....####@@@@........@@@@@@@@@@@@@@@@####....          ",
"          ....####@@@@........@@@@@@@@@@@@@@@@####....          ",
"          ....####@@@@........@@@@@@@@@@@@@@@@####....          ",
"          ....####@@@@@@@@@@@@@@@@@@@@@@@@########....          ",
"          ....####@@@@@@@@@@@@@@@@@@@@@@@@########....          ",
"          ....####@@@@@@@@@@@@@@@@@@@@@@@@########....          ",
"          ....####@@@@@@@@@@@@@@@@@@@@@@@@########....          ",
"              ....####@@@@@@@@@@@@@@@@............      ++++    ",
"              ....####@@@@@@@@@@@@@@@@............      ++++    ",
"              ....####@@@@@@@@@@@@@@@@............      ++++    ",
"              ....####@@@@@@@@@@@@@@@@............      ++++    ",
"          ....@@@@....................@@@@@@@@....  ++++++++    ",
"          ....@@@@....................@@@@@@@@....  ++++++++    ",
"          ....@@@@....................@@@@@@@@....  ++++++++    ",
"          ....@@@@....................@@@@@@@@....  ++++++++    ",
"          ....@@@@....@@@@@@@@@@@@....@@@@@@@@....  ++++        ",
"          ....@@@@....@@@@@@@@@@@@....@@@@@@@@....  ++++        ",
"          ....@@@@....@@@@@@@@@@@@....@@@@@@@@....  ++++        ",
"          ....@@@@....@@@@@@@@@@@@....@@@@@@@@....  ++++        ",
"              ........####@@@@@@@@@@@@............              ",
"              ........####@@@@@@@@@@@@............              ",
"              ........####@@@@@@@@@@@@............              ",
"              ........####@@@@@@@@@@@@............              ",
"              ....@@@@@@@@####....####@@@@@@@@@@@@....          ",
"              ....@@@@@@@@####....####@@@@@@@@@@@@....          ",
"              ....@@@@@@@@####....####@@@@@@@@@@@@....          ",
"              ....@@@@@@@@####....####@@@@@@@@@@@@....          ",
"              ........................................          ",
"              ........................................          ",
"              ........................................          ",
"              ........................................          "};
