/* XPM */
static char * rabbit_2_xpm[] = {
"64 64 5 1",
" 	c #9CBDEE",
".	c #000000",
"+	c #FFFFFF",
"@	c #E1E1E1",
"#	c #318B6A",
"      ............    ............                              ",
"      ............    ............                              ",
"      ............    ............                              ",
"      ............    ............                              ",
"      ....++++++++....++++++++........                          ",
"      ....++++++++....++++++++........                          ",
"      ....++++++++....++++++++........                          ",
"      ....++++++++....++++++++........                          ",
"          ....@@@@++++....@@@@++++....                          ",
"          ....@@@@++++....@@@@++++....                          ",
"          ....@@@@++++....@@@@++++....                          ",
"          ....@@@@++++....@@@@++++....                          ",
"              ....@@@@....@@@@++++....                          ",
"              ....@@@@....@@@@++++....                          ",
"              ....@@@@....@@@@++++....                          ",
"              ....@@@@....@@@@++++....                          ",
"########          ........@@@@++++....                          ",
"########          ........@@@@++++....                          ",
"########          ........@@@@++++....                          ",
"########          ........@@@@++++....                          ",
"    ########  ....++++++++++++++++........                      ",
"    ########  ....++++++++++++++++........                      ",
"    ########  ....++++++++++++++++........                      ",
"    ########  ....++++++++++++++++........                      ",
"              ....++++....++++++++++++++++....                  ",
"              ....++++....++++++++++++++++....                  ",
"              ....++++....++++++++++++++++....                  ",
"              ....++++....++++++++++++++++....                  ",
"          ....++++++++....++++++++++++++++@@@@....              ",
"          ....++++++++....++++++++++++++++@@@@....              ",
"          ....++++++++....++++++++++++++++@@@@....              ",
"          ....++++++++....++++++++++++++++@@@@....              ",
"      ............++++++++++++++++++++++++@@@@....              ",
"      ............++++++++++++++++++++++++@@@@....              ",
"      ............++++++++++++++++++++++++@@@@....              ",
"      ............++++++++++++++++++++++++@@@@....              ",
"      ....++++++++++++++++++++++++++++@@@@....                  ",
"      ....++++++++++++++++++++++++++++@@@@....                  ",
"      ....++++++++++++++++++++++++++++@@@@....                  ",
"      ....++++++++++++++++++++++++++++@@@@....                  ",
"      ....@@@@++++++++++++@@@@....@@@@++++++++........          ",
"      ....@@@@++++++++++++@@@@....@@@@++++++++........          ",
"      ....@@@@++++++++++++@@@@....@@@@++++++++........          ",
"      ....@@@@++++++++++++@@@@....@@@@++++++++........          ",
"          ....................++++++++++++@@@@....++++....      ",
"          ....................++++++++++++@@@@....++++....      ",
"          ....................++++++++++++@@@@....++++....      ",
"          ....................++++++++++++@@@@....++++....      ",
"                      ........++++++++@@@@........++++....      ",
"                      ........++++++++@@@@........++++....      ",
"                      ........++++++++@@@@........++++....      ",
"                      ........++++++++@@@@........++++....      ",
"                      ....................@@@@........          ",
"                      ....................@@@@........          ",
"                      ....................@@@@........          ",
"                      ....................@@@@........          ",
"                      ....++++++++++++++++++++....              ",
"                      ....++++++++++++++++++++....              ",
"                      ....++++++++++++++++++++....              ",
"                      ....++++++++++++++++++++....              ",
"                  ................................              ",
"                  ................................              ",
"                  ................................              ",
"                  ................................              "};
