/* XPM */
static char * trap_2_xpm[] = {
"64 64 4 1",
" 	c #9CBDEE",
".	c #000000",
"+	c #FFFFFF",
"@	c #381850",
"                                                                ",
"                                                                ",
"                                                                ",
"                                                                ",
"            ....                            ....                ",
"            ....                            ....                ",
"            ....                            ....                ",
"            ....                            ....                ",
"        ....++++....                    ....++++....            ",
"        ....++++....                    ....++++....            ",
"        ....++++....                    ....++++....            ",
"        ....++++....                    ....++++....            ",
"    ........++++........            ........++++........        ",
"    ........++++........            ........++++........        ",
"    ........++++........            ........++++........        ",
"    ........++++........            ........++++........        ",
"    ........++++........            ........++++........        ",
"    ........++++........            ........++++........        ",
"    ........++++........            ........++++........        ",
"    ........++++........            ........++++........        ",
"    ....@@@@++++@@@@....            ....@@@@++++@@@@....        ",
"    ....@@@@++++@@@@....            ....@@@@++++@@@@....        ",
"    ....@@@@++++@@@@....            ....@@@@++++@@@@....        ",
"    ....@@@@++++@@@@....            ....@@@@++++@@@@....        ",
"    ....................            ....................        ",
"    ....................            ....................        ",
"    ....................            ....................        ",
"    ....................            ....................        ",
"                                                                ",
"                                                                ",
"                                                                ",
"                                                                ",
"                                                                ",
"                                                                ",
"                                                                ",
"                                                                ",
"            ....                            ....                ",
"            ....                            ....                ",
"            ....                            ....                ",
"            ....                            ....                ",
"        ....++++....                    ....++++....            ",
"        ....++++....                    ....++++....            ",
"        ....++++....                    ....++++....            ",
"        ....++++....                    ....++++....            ",
"    ........++++........            ........++++........        ",
"    ........++++........            ........++++........        ",
"    ........++++........            ........++++........        ",
"    ........++++........            ........++++........        ",
"    ........++++........            ........++++........        ",
"    ........++++........            ........++++........        ",
"    ........++++........            ........++++........        ",
"    ........++++........            ........++++........        ",
"    ....@@@@++++@@@@....            ....@@@@++++@@@@....        ",
"    ....@@@@++++@@@@....            ....@@@@++++@@@@....        ",
"    ....@@@@++++@@@@....            ....@@@@++++@@@@....        ",
"    ....@@@@++++@@@@....            ....@@@@++++@@@@....        ",
"    ....................            ....................        ",
"    ....................            ....................        ",
"    ....................            ....................        ",
"    ....................            ....................        ",
"                                                                ",
"                                                                ",
"                                                                ",
"                                                                "};
