/* XPM */
static char * trap_3_xpm[] = {
"64 64 3 1",
" 	c #9CBDEE",
".	c #000000",
"+	c #FFFFFF",
"                                                                ",
"                                                                ",
"                                                                ",
"                                                                ",
"                                                                ",
"                                                                ",
"                                                                ",
"                                                                ",
"            ....                            ....                ",
"            ....                            ....                ",
"            ....                            ....                ",
"            ....                            ....                ",
"    ........++++........            ........++++........        ",
"    ........++++........            ........++++........        ",
"    ........++++........            ........++++........        ",
"    ........++++........            ........++++........        ",
"    ........++++........            ........++++........        ",
"    ........++++........            ........++++........        ",
"    ........++++........            ........++++........        ",
"    ........++++........            ........++++........        ",
"    ........++++........            ........++++........        ",
"    ........++++........            ........++++........        ",
"    ........++++........            ........++++........        ",
"    ........++++........            ........++++........        ",
"    ....................            ....................        ",
"    ....................            ....................        ",
"    ....................            ....................        ",
"    ....................            ....................        ",
"                                                                ",
"                                                                ",
"                                                                ",
"                                                                ",
"                                                                ",
"                                                                ",
"                                                                ",
"                                                                ",
"                                                                ",
"                                                                ",
"                                                                ",
"                                                                ",
"            ....                            ....                ",
"            ....                            ....                ",
"            ....                            ....                ",
"            ....                            ....                ",
"    ........++++........            ........++++........        ",
"    ........++++........            ........++++........        ",
"    ........++++........            ........++++........        ",
"    ........++++........            ........++++........        ",
"    ........++++........            ........++++........        ",
"    ........++++........            ........++++........        ",
"    ........++++........            ........++++........        ",
"    ........++++........            ........++++........        ",
"    ........++++........            ........++++........        ",
"    ........++++........            ........++++........        ",
"    ........++++........            ........++++........        ",
"    ........++++........            ........++++........        ",
"    ....................            ....................        ",
"    ....................            ....................        ",
"    ....................            ....................        ",
"    ....................            ....................        ",
"                                                                ",
"                                                                ",
"                                                                ",
"                                                                "};
