/* XPM */
static char * trap_xpm[] = {
"64 64 5 1",
" 	c #9CBDEE",
".	c #000000",
"+	c #FFFFFF",
"@	c #381850",
"#	c #9878A0",
"            ....                            ....                ",
"            ....                            ....                ",
"            ....                            ....                ",
"            ....                            ....                ",
"        ....++++....                    ....++++....            ",
"        ....++++....                    ....++++....            ",
"        ....++++....                    ....++++....            ",
"        ....++++....                    ....++++....            ",
"        ....++++....                    ....++++....            ",
"        ....++++....                    ....++++....            ",
"        ....++++....                    ....++++....            ",
"        ....++++....                    ....++++....            ",
"    ........++++........            ........++++........        ",
"    ........++++........            ........++++........        ",
"    ........++++........            ........++++........        ",
"    ........++++........            ........++++........        ",
"    ....@@@@++++@@@@....            ....@@@@++++@@@@....        ",
"    ....@@@@++++@@@@....            ....@@@@++++@@@@....        ",
"    ....@@@@++++@@@@....            ....@@@@++++@@@@....        ",
"    ....@@@@++++@@@@....            ....@@@@++++@@@@....        ",
"    ....####++++####....            ....####++++####....        ",
"    ....####++++####....            ....####++++####....        ",
"    ....####++++####....            ....####++++####....        ",
"    ....####++++####....            ....####++++####....        ",
"    ....................            ....................        ",
"    ....................            ....................        ",
"    ....................            ....................        ",
"    ....................            ....................        ",
"                                                                ",
"                                                                ",
"                                                                ",
"                                                                ",
"            ....                            ....                ",
"            ....                            ....                ",
"            ....                            ....                ",
"            ....                            ....                ",
"        ....++++....                    ....++++....            ",
"        ....++++....                    ....++++....            ",
"        ....++++....                    ....++++....            ",
"        ....++++....                    ....++++....            ",
"        ....++++....                    ....++++....            ",
"        ....++++....                    ....++++....            ",
"        ....++++....                    ....++++....            ",
"        ....++++....                    ....++++....            ",
"    ........++++........            ........++++........        ",
"    ........++++........            ........++++........        ",
"    ........++++........            ........++++........        ",
"    ........++++........            ........++++........        ",
"    ....@@@@++++@@@@....            ....@@@@++++@@@@....        ",
"    ....@@@@++++@@@@....            ....@@@@++++@@@@....        ",
"    ....@@@@++++@@@@....            ....@@@@++++@@@@....        ",
"    ....@@@@++++@@@@....            ....@@@@++++@@@@....        ",
"    ....####++++####....            ....####++++####....        ",
"    ....####++++####....            ....####++++####....        ",
"    ....####++++####....            ....####++++####....        ",
"    ....####++++####....            ....####++++####....        ",
"    ....................            ....................        ",
"    ....................            ....................        ",
"    ....................            ....................        ",
"    ....................            ....................        ",
"                                                                ",
"                                                                ",
"                                                                ",
"                                                                "};
