/* XPM */
static char *trap[] = {
/* columns rows colors chars-per-pixel */
"64 64 8 1 ",
"  c None",
". c #5CD00B",
"X c #6ABE30",
"o c #595652",
"O c #222034",
"+ c black",
"@ c black",
"# c black",
/* pixels */
"................................................................",
".XXXXXXXXXXXXXXXXXXXXXXXXXXXXXXXXXXXXXXXXXXXXXXXXXXXXXXXXXXXXXX.",
".XXXXXXXXXXXXXXXXXXXXXXXXXXXXXXXXXXXXXXXXXXXXXXXXXXXXXXXXXXXXXX.",
".XXXXXXXXXXXXXXXXXXXXXXXXXXXXXXXXXXXXXXXXXXXXXXXXXXXXXXXXXXXXXX.",
".XXXXXXXXXXXXXXXXXXXXXXXXXXXooooooooXXXXXXXXXXXXXXXXXXXXXXXXXXX.",
".XXXXXXXXXXXXXXXXXXXXXXXXXXXoOOOOOOoXXXXXXXXXXXXXXXXXXXXXXXXXXX.",
".XXXXXXXXXXXXXXXXXXXXXXXXXXXoOOOOOOoXXXXXXXXXXXXXXXXXXXXXXXXXXX.",
".XXXXXXXXXXXXXXXXXXXXXXXXXX++++++++++XXXXXXXXXXXXXXXXXXXXXXXXXX.",
".XXXXXXXXXXXXXXXXXXXXXX++++OOO+OO+OOO++++XXXXXXXXXXXXXXXXXXXXXX.",
".XXXXXXXXXXXXXXXXXXXX++OOOOOOO+OO+OOOOOOO++XXXXXXXXXXXXXXXXXXXX.",
".XXXXXXXXXXXXXXXXXX++OOOOOOOOO+OO+OOOOOOOOO++XXXXXXXXXXXXXXXXXX.",
".XXXXXXXXXXXXXXXXX+OOOOOOOOOOO+OO+OOOOOOOOOOO+XXXXXXXXXXXXXXXXX.",
".XXXXXXXXXXXXXXXX+OOOOOOOOOOOO+OO+OOOOOOOOOOOO+XXXXXXXXXXXXXXXX.",
".XXXXXXXXXXXXXX++OOOOOOOOOOOOO+OO+OOOOOOOOOOOOO++XXXXXXXXXXXXXX.",
".XXXXXXXXXXXXX+OOOOOOOOOOOOO++++++++OOOOOOOOOOOOO+XXXXXXXXXXXXX.",
".XXXXXXXXXXXXX+OOOOOOOOOO+++oOOOOOOo+++OOOOOOOOOO+XXXXXXXXXXXXX.",
".XXXXXXXXXXXX+OOOOOOOOO++XXXoOOOOOOoXXX++OOOOOOOOO+XXXXXXXXXXXX.",
".XXXXXXXXXXX+OOOOOOOOO+XXXXXoOOOOOOoXXXXX+OOOOOOOOO+XXXXXXXXXXX.",
".XXXXXXXXXX+OOOOOOOO++XXXXXXoOOOOOOoXXXXXX++OOOOOOOO+XXXXXXXXXX.",
".XXXXXXXXXX+OOOOOOO+XXXXXXXXoOOOOOOoXXXXXXXX+OOOOOOO+XXXXXXXXXX.",
".XXXXXXXXX+OOOOOOOO+XXXXXXXXoOOOOOOoXXXXXXXX+OOOOOOOO+XXXXXXXXX.",
".XXXXXXXXX+OOOOOOO+XXXXXXXXXoOOOOOOoXXXXXXXXX+OOOOOOO+XXXXXXXXX.",
".XXXXXXXX+OOOOOOO+XXXXXXXXXXoOOOOOOoXXXXXXXXXX+OOOOOOO+XXXXXXXX.",
".XXXXXXXX+OOOOOOO+XXXXXXXXXXoOOOOOOoXXXXXXXXXX+OOOOOOO+XXXXXXXX.",
".XXXXXXXX+OOOOOO+XXXXXXXXXXXo++++++oXXXXXXXXXXX+OOOOOO+XXXXXXXX.",
".XXXXXXXX+OOOOOO+XXXXXXXXXXX+OOOOOO+XXXXXXXXXXX+OOOOOO+XXXXXXXX.",
".XXXXXXX+OOOOOOO+XXXXXXXXXX+OOOOOOOO+XXXXXXXXXX+OOOOOOO+XXXXXXX.",
".XXXXXXX+OOOOOO+XXXXXXXXXX+OOOOOOOOOO+XXXXXXXXXX+OOOOOO+XXXXXXX.",
".XXXXXXX+OOOOOO+XXXXXXXXX+OOOOOOOOOOOO+XXXXXXXXX+OOOOOO+XXXXXXX.",
".XXXXXXX+OOOOOO+XXXXXXXXX+OOOOOOOOOOOO+XXXXXXXXX+OOOOOO+XXXXXXX.",
".XXXXXXX+OOOOOO+XXXXXXXXX+OOOOOOOOOOOO+XXXXXXXXX+OOOOOO+XXXXXXX.",
".XXXXXXX+OOOOOO+XXXXXXXXX+OOOOOOOOOOOO+XXXXXXXXX+OOOOOO+XXXXXXX.",
".XXXXXXX+OOOOOO+XXXXXXXXX+OOOOOOOOOOOO+XXXXXXXXX+OOOOOO+XXXXXXX.",
".XXXXXXX+OOOOOO+XXXXXXXXX+OOOOOOOOOOOO+XXXXXXXXX+OOOOOO+XXXXXXX.",
".XXXXXXX+OOOOOO+XXXXXXXXXX+OOOOOOOOOO+XXXXXXXXXX+OOOOOO+XXXXXXX.",
".XXXXXXX+OOOOOOO+XXXXXXXXXX+OOOOOOOO+XXXXXXXXXX+OOOOOOO+XXXXXXX.",
".XXXXXXXX+OOOOOO+XXXXXXXXXXX+OOOOOO+XXXXXXXXXXX+OOOOOO+XXXXXXXX.",
".XXXXXXXX+OOOOOO+XXXXXXXXXXXo++++++oXXXXXXXXXXX+OOOOOO+XXXXXXXX.",
".XXXXXXXX+OOOOOOO+XXXXXXXXXXoOOOOOOoXXXXXXXXXX+OOOOOOO+XXXXXXXX.",
".XXXXXXXX+OOOOOOO+XXXXXXXXXXoOOOOOOoXXXXXXXXXX+OOOOOOO+XXXXXXXX.",
".XXXXXXXXX+OOOOOOO+XXXXXXXXXoOOOOOOoXXXXXXXXX+OOOOOOO+XXXXXXXXX.",
".XXXXXXXXX+OOOOOOOO+XXXXXXXXoOOOOOOoXXXXXXXX+OOOOOOOO+XXXXXXXXX.",
".XXXXXXXXXX+OOOOOOO+XXXXXXXXoOOOOOOoXXXXXXXX+OOOOOOO+XXXXXXXXXX.",
".XXXXXXXXXX+OOOOOOOO++XXXXXXoOOOOOOoXXXXXX++OOOOOOOO+XXXXXXXXXX.",
".XXXXXXXXXXX+OOOOOOOOO+XXXXXoOOOOOOoXXXXX+OOOOOOOOO+XXXXXXXXXXX.",
".XXXXXXXXXXXX+OOOOOOOOO++XXXoOOOOOOoXXX++OOOOOOOOO+XXXXXXXXXXXX.",
".XXXXXXXXXXXXX+OOOOOOOOOO+++oOOOOOOo+++OOOOOOOOOO+XXXXXXXXXXXXX.",
".XXXXXXXXXXXXX+OOOOOOOOOOOOO++++++++OOOOOOOOOOOOO+XXXXXXXXXXXXX.",
".XXXXXXXXXXXXXX++OOOOOOOOOOOOO+OO+OOOOOOOOOOOOO++XXXXXXXXXXXXXX.",
".XXXXXXXXXXXXXXXX+OOOOOOOOOOOO+OO+OOOOOOOOOOOO+XXXXXXXXXXXXXXXX.",
".XXXXXXXXXXXXXXXXX+OOOOOOOOOOO+OO+OOOOOOOOOOO+XXXXXXXXXXXXXXXXX.",
".XXXXXXXXXXXXXXXXXX++OOOOOOOOO+OO+OOOOOOOOO++XXXXXXXXXXXXXXXXXX.",
".XXXXXXXXXXXXXXXXXXXX++OOOOOOO+OO+OOOOOOO++XXXXXXXXXXXXXXXXXXXX.",
".XXXXXXXXXXXXXXXXXXXXXX++++OOO+OO+OOO++++XXXXXXXXXXXXXXXXXXXXXX.",
".XXXXXXXXXXXXXXXXXXXXXXXXXX++++++++++XXXXXXXXXXXXXXXXXXXXXXXXXX.",
".XXXXXXXXXXXXXXXXXXXXXXXXXXXoOOOOOOoXXXXXXXXXXXXXXXXXXXXXXXXXXX.",
".XXXXXXXXXXXXXXXXXXXXXXXXXXXoOOOOOOoXXXXXXXXXXXXXXXXXXXXXXXXXXX.",
".XXXXXXXXXXXXXXXXXXXXXXXXXXXooooooooXXXXXXXXXXXXXXXXXXXXXXXXXXX.",
".XXXXXXXXXXXXXXXXXXXXXXXXXXXXXXXXXXXXXXXXXXXXXXXXXXXXXXXXXXXXXX.",
".XXXXXXXXXXXXXXXXXXXXXXXXXXXXXXXXXXXXXXXXXXXXXXXXXXXXXXXXXXXXXX.",
".XXXXXXXXXXXXXXXXXXXXXXXXXXXXXXXXXXXXXXXXXXXXXXXXXXXXXXXXXXXXXX.",
".XXXXXXXXXXXXXXXXXXXXXXXXXXXXXXXXXXXXXXXXXXXXXXXXXXXXXXXXXXXXXX.",
".XXXXXXXXXXXXXXXXXXXXXXXXXXXXXXXXXXXXXXXXXXXXXXXXXXXXXXXXXXXXXX.",
"................................................................"
};
