/* XPM */
static char * wall_xpm[] = {
"64 64 4 1",
" 	c #000000",
".	c #391852",
"+	c #9C7BA4",
"@	c #FFFF8B",
"                            ........                            ",
"                            ........                            ",
"                            ........                            ",
"                            ........                            ",
"    ++++@@@@@@@@++++++++++++        ++++++++++++++++++++++++    ",
"    ++++@@@@@@@@++++++++++++        ++++++++++++++++++++++++    ",
"    ++++@@@@@@@@++++++++++++        ++++++++++++++++++++++++    ",
"    ++++@@@@@@@@++++++++++++        ++++++++++++++++++++++++    ",
"    @@@@....++++++++++++++++++++++++++++....++++++++++++++++    ",
"    @@@@....++++++++++++++++++++++++++++....++++++++++++++++    ",
"    @@@@....++++++++++++++++++++++++++++....++++++++++++++++    ",
"    @@@@....++++++++++++++++++++++++++++....++++++++++++++++    ",
"    @@@@++++++++++++@@@@++++++++++++++++++++++++++++@@@@++++    ",
"    @@@@++++++++++++@@@@++++++++++++++++++++++++++++@@@@++++    ",
"    @@@@++++++++++++@@@@++++++++++++++++++++++++++++@@@@++++    ",
"    @@@@++++++++++++@@@@++++++++++++++++++++++++++++@@@@++++    ",
"    @@@@++++++++++++++++++++++++++++++++++++++++++++++++++++    ",
"    @@@@++++++++++++++++++++++++++++++++++++++++++++++++++++    ",
"    @@@@++++++++++++++++++++++++++++++++++++++++++++++++++++    ",
"    @@@@++++++++++++++++++++++++++++++++++++++++++++++++++++    ",
"    @@@@++++++++++++++++++++++++++++++++++++++++++++++++++++    ",
"    @@@@++++++++++++++++++++++++++++++++++++++++++++++++++++    ",
"    @@@@++++++++++++++++++++++++++++++++++++++++++++++++++++    ",
"    @@@@++++++++++++++++++++++++++++++++++++++++++++++++++++    ",
"    @@@@@@@@++++@@@@@@@@++++@@@@@@@@@@@@@@@@++++++++@@@@@@@@    ",
"    @@@@@@@@++++@@@@@@@@++++@@@@@@@@@@@@@@@@++++++++@@@@@@@@    ",
"    @@@@@@@@++++@@@@@@@@++++@@@@@@@@@@@@@@@@++++++++@@@@@@@@    ",
"    @@@@@@@@++++@@@@@@@@++++@@@@@@@@@@@@@@@@++++++++@@@@@@@@    ",
"    ++++@@@@@@@@++++++++@@@@@@@@++++++++@@@@@@@@@@@@@@@@++++    ",
"    ++++@@@@@@@@++++++++@@@@@@@@++++++++@@@@@@@@@@@@@@@@++++    ",
"    ++++@@@@@@@@++++++++@@@@@@@@++++++++@@@@@@@@@@@@@@@@++++    ",
"    ++++@@@@@@@@++++++++@@@@@@@@++++++++@@@@@@@@@@@@@@@@++++    ",
"    ........                                        ........    ",
"    ........                                        ........    ",
"    ........                                        ........    ",
"    ........                                        ........    ",
"                ++++++++++++        ++++++++++++                ",
"                ++++++++++++        ++++++++++++                ",
"                ++++++++++++        ++++++++++++                ",
"                ++++++++++++        ++++++++++++                ",
"    ++++++++    ........++++        ++++........    ++++++++    ",
"    ++++++++    ........++++        ++++........    ++++++++    ",
"    ++++++++    ........++++        ++++........    ++++++++    ",
"    ++++++++    ........++++        ++++........    ++++++++    ",
"    ....++++    ........                ........    ++++....    ",
"    ....++++    ........                ........    ++++....    ",
"    ....++++    ........                ........    ++++....    ",
"    ....++++    ........                ........    ++++....    ",
"                        ++++++++++++++++                        ",
"                        ++++++++++++++++                        ",
"                        ++++++++++++++++                        ",
"                        ++++++++++++++++                        ",
"    ++++++++++++++++    ++++........++++    ++++++++++++++++    ",
"    ++++++++++++++++    ++++........++++    ++++++++++++++++    ",
"    ++++++++++++++++    ++++........++++    ++++++++++++++++    ",
"    ++++++++++++++++    ++++........++++    ++++++++++++++++    ",
"    ............++++    ................    ++++............    ",
"    ............++++    ................    ++++............    ",
"    ............++++    ................    ++++............    ",
"    ............++++    ................    ++++............    ",
"                                                                ",
"                                                                ",
"                                                                ",
"                                                                "};
