/* XPM */
static char *wall[] = {
/* columns rows colors chars-per-pixel */
"64 64 4 1 ",
"  c None",
". c black",
"X c #9BADB7",
"o c #847E87",
/* pixels */
"................................................................",
".XXXXXXoXXXXXXX..XXXXXXXXXXXoXX..XXoXXXXXXXXXXX..XXXXXXXoXXXXXX.",
".XXXXXoXXXXXXXX..XXXXooXXXXXXXX..XXXXXXXXooXXXX..XXXXXXXXoXXXXX.",
".ooXXXXoXXXXooX..XXXXXXXXXXXXXX..XXXXXXXXXXXXXX..XooXXXXoXXXXoo.",
".XXXXXXXXXXXXXo..XXXXXXXXXXXXXX..XXXXXXXXXXXXXX..oXXXXXXXXXXXXX.",
".XXXoXXXXXXXXXX..XXXXXXXoXXXoXX..XXoXXXoXXXXXXX..XXXXXXXXXXoXXX.",
".XXXXoXXXXXoXXX..oooXXXXXoXXXXX..XXXXXoXXXXXooo..XXXoXXXXXoXXXX.",
"................................................................",
"................................................................",
"XoXXXXX..oXXXXXXXXXXoXo..XXoXXXXXXXXoXXX..XoXXXXXXXXXXo..XXXXXoX",
"XXoXXXX..XoXXXXXXXXoXXX..XXXXXXXXXXXXXXX..XXoXXXXXXXXoX..XXXXoXX",
"XXXXXoX..XXXXXXXXXXXXXX..XXXXXXXXXXXXXXo..XXXXXXXXXXXXX..XoXXXXX",
"XXXXXXX..XXXXooXXXXXXXX..ooXXXXooXXXXooX..XXXXXXXooXXXX..XXXXXXX",
"XXXXXXX..XXXoXXXXXXXXXX..XXXXXXXXXXXXXXX..XXXXXXXXXoXXX..XXXXXXX",
"XXXoXXX..XXXXXXXXXXoXXX..XXXXXXooXXXXXXX..XXoXXXXXXXXXX..XXXoXXX",
"................................................................",
"................................................................",
".XXoXXXXXXXXXXX..XXXXXXXoXXXXXX..XXXXXXoXXXXXXX..XXXXXXXXXXXoXX.",
".XXXXXXXXooXXXX..XXXXXXXXoXXXXX..XXXXXoXXXXXXXX..XXXXooXXXXXXXX.",
".XXXXXXXXXXXXXX..XooXXXXoXXXXoo..ooXXXXoXXXXooX..XXXXXXXXXXXXXX.",
".XXXXXXXXXXXXXX..oXXXXXXXXXXXXX..XXXXXXXXXXXXXo..XXXXXXXXXXXXXX.",
".XXoXXXoXXXXXXX..XXXXXXXXXXoXXX..XXXoXXXXXXXXXX..XXXXXXXoXXXoXX.",
".XXXXXoXXXXXooo..XXXoXXXXXoXXXX..XXXXoXXXXXoXXX..oooXXXXXoXXXXX.",
"................................................................",
"................................................................",
"XXXXoXXX..XoXXXXXXXXXXo..XXXXXoXXoXXXXX..oXXXXXXXXXXoX..XXXoXXXX",
"XXXXXXXX..XXoXXXXXXXXoX..XXXXoXXXXoXXXX..XoXXXXXXXXoXX..XXXXXXXX",
"XXXXXXXo..XXXXXXXXXXXXX..XoXXXXXXXXXXoX..XXXXXXXXXXXXX..oXXXXXXX",
"oXXXXooX..XXXXXXXooXXXX..XXXXXXXXXXXXXX..XXXXooXXXXXXX..XooXXXXo",
"XXXXXXXX..XXXXXXXXXoXXX..XXXXXXXXXXXXXX..XXXoXXXXXXXXX..XXXXXXXX",
"oXXXXXXX..XXoXXXXXXXXXX..XXXoXXXXXXoXXX..XXXXXXXXXXoXX..XXXXXXXo",
"................................................................",
"................................................................",
".XXXXXXoXXXXXXX..XXXXXXXXXXXoXX..XXoXXXXXXXXXXX..XXXXXXXoXXXXXX.",
".XXXXXoXXXXXXXX..XXXXooXXXXXXXX..XXXXXXXXooXXXX..XXXXXXXXoXXXXX.",
".ooXXXXoXXXXooX..XXXXXXXXXXXXXX..XXXXXXXXXXXXXX..XooXXXXoXXXXoo.",
".XXXXXXXXXXXXXo..XXXXXXXXXXXXXX..XXXXXXXXXXXXXX..oXXXXXXXXXXXXX.",
".XXXoXXXXXXXXXX..XXXXXXXoXXXoXX..XXoXXXoXXXXXXX..XXXXXXXXXXoXXX.",
".XXXXoXXXXXoXXX..oooXXXXXoXXXXX..XXXXXoXXXXXooo..XXXoXXXXXoXXXX.",
"................................................................",
"................................................................",
"XoXXXXX..oXXXXXXXXXXoXo..XXoXXXXXXXXoXXX..XoXXXXXXXXXXo..XXXXXoX",
"XXoXXXX..XoXXXXXXXXoXXX..XXXXXXXXXXXXXXX..XXoXXXXXXXXoX..XXXXoXX",
"XXXXXoX..XXXXXXXXXXXXXX..XXXXXXXXXXXXXXo..XXXXXXXXXXXXX..XoXXXXX",
"XXXXXXX..XXXXooXXXXXXXX..ooXXXXooXXXXooX..XXXXXXXooXXXX..XXXXXXX",
"XXXXXXX..XXXoXXXXXXXXXX..XXXXXXXXXXXXXXX..XXXXXXXXXoXXX..XXXXXXX",
"XXXoXXX..XXXXXXXXXXoXXX..XXXXXXooXXXXXXX..XXoXXXXXXXXXX..XXXoXXX",
"................................................................",
"................................................................",
".XXoXXXXXXXXXXX..XXXXXXXoXXXXXX..XXXXXXoXXXXXXX..XXXXXXXXXXXoXX.",
".XXXXXXXXooXXXX..XXXXXXXXoXXXXX..XXXXXoXXXXXXXX..XXXXooXXXXXXXX.",
".XXXXXXXXXXXXXX..XooXXXXoXXXXoo..ooXXXXoXXXXooX..XXXXXXXXXXXXXX.",
".XXXXXXXXXXXXXX..oXXXXXXXXXXXXX..XXXXXXXXXXXXXo..XXXXXXXXXXXXXX.",
".XXoXXXoXXXXXXX..XXXXXXXXXXoXXX..XXXoXXXXXXXXXX..XXXXXXXoXXXoXX.",
".XXXXXoXXXXXooo..XXXoXXXXXoXXXX..XXXXoXXXXXoXXX..oooXXXXXoXXXXX.",
"................................................................",
"................................................................",
"XXXXoXXX..XoXXXXXXXXXXo..XXXXXoXXoXXXXX..oXXXXXXXXXXoX..XXXoXXXX",
"XXXXXXXX..XXoXXXXXXXXoX..XXXXoXXXXoXXXX..XoXXXXXXXXoXX..XXXXXXXX",
"XXXXXXXo..XXXXXXXXXXXXX..XoXXXXXXXXXXoX..XXXXXXXXXXXXX..oXXXXXXX",
"oXXXXooX..XXXXXXXooXXXX..XXXXXXXXXXXXXX..XXXXooXXXXXXX..XooXXXXo",
"XXXXXXXX..XXXXXXXXXoXXX..XXXXXXXXXXXXXX..XXXoXXXXXXXXX..XXXXXXXX",
"oXXXXXXX..XXoXXXXXXXXXX..XXXoXXXXXXoXXX..XXXXXXXXXXoXX..XXXXXXXo",
"................................................................"
};
